<svg id="Layer_1" enable-background="new 0 0 512 512" height="512" viewBox="0 0 512 512" width="512" xmlns="http://www.w3.org/2000/svg"><g><g><g><g id="XMLID_1404_"><g id="XMLID_1405_"><g id="XMLID_1406_"><g id="XMLID_1407_"><g id="XMLID_1408_"><g id="XMLID_1409_"><g id="XMLID_1410_"><g id="XMLID_1411_"><g id="XMLID_1412_"><g id="XMLID_1413_"><g id="XMLID_1414_"><g id="XMLID_1415_"><g id="XMLID_1416_"><g id="XMLID_1417_"><g id="XMLID_1418_"><circle cx="256" cy="256" fill="#7c5149" r="256"/></g></g></g></g></g></g></g></g></g></g></g></g></g></g></g></g></g><path d="m512 256c0-12.371-.897-24.532-2.593-36.434l-105.474-105.475-289.841 289.844 105.473 105.473c11.903 1.696 24.063 2.592 36.435 2.592 141.385 0 256-114.615 256-256z" fill="#5b3733"/><g><g><g id="XMLID_1032_"><g id="XMLID_1033_"><g id="XMLID_1034_"><g id="XMLID_1035_"><g id="XMLID_1036_"><g id="XMLID_1037_"><g id="XMLID_1038_"><g id="XMLID_1039_"><g id="XMLID_1040_"><g id="XMLID_1048_"><g id="XMLID_1049_"><g id="XMLID_1050_"><g id="XMLID_1153_"><g id="XMLID_1154_"><circle id="XMLID_1155_" cx="256" cy="256" fill="#ffb806" r="205"/></g></g></g></g></g></g></g></g></g></g></g></g></g></g></g><g><g id="XMLID_1258_"><g id="XMLID_1273_"><g id="XMLID_1274_"><g id="XMLID_1275_"><g id="XMLID_1276_"><g id="XMLID_1277_"><g id="XMLID_1278_"><g id="XMLID_1279_"><g id="XMLID_1280_"><g id="XMLID_1281_"><g id="XMLID_1282_"><g id="XMLID_1283_"><g id="XMLID_1284_"><g id="XMLID_1285_"><path d="m461 256c0 113.22-91.78 205-205 205v-410c113.22 0 205 91.78 205 205z" fill="#f49c0f"/></g></g></g></g></g></g></g></g></g></g></g></g></g></g></g><g><g><g id="XMLID_1541_"><g id="XMLID_1542_"><g id="XMLID_1543_"><g id="XMLID_1544_"><g id="XMLID_1545_"><g id="XMLID_1546_"><g id="XMLID_1547_"><g id="XMLID_1548_"><g id="XMLID_1549_"><g id="XMLID_1550_"><g id="XMLID_1551_"><g id="XMLID_1552_"><g id="XMLID_1553_"><g id="XMLID_1554_"><g id="XMLID_1555_"><circle cx="256" cy="256" fill="#ffd357" r="157"/></g></g></g></g></g></g></g></g></g></g></g></g></g></g></g></g></g><g><g id="XMLID_1242_"><g id="XMLID_1243_"><g id="XMLID_1244_"><g id="XMLID_1245_"><g id="XMLID_1246_"><g id="XMLID_1247_"><g id="XMLID_1248_"><g id="XMLID_1249_"><g id="XMLID_1250_"><g id="XMLID_1251_"><g id="XMLID_1252_"><g id="XMLID_1253_"><g id="XMLID_1254_"><g id="XMLID_1255_"><path d="m413 256c0 86.71-70.29 157-157 157v-314c86.71 0 157 70.29 157 157z" fill="#ffb806"/></g></g></g></g></g></g></g></g></g></g></g></g></g></g></g><path d="m310.638 281.291 49.841-18.463-33.158-15.622-7.508-35.912-33.158 35.912c-.194-.377-.381-.755-.563-1.136-7.543-15.83-3.676-34.762 9.031-46.845l2.75-2.615s-32-32.773-41.811-52.145l-.062-.125-.063.125c-9.811 19.372-41.811 52.145-41.811 52.145l2.75 2.615c12.707 12.083 16.574 31.015 9.031 46.845-.181.381-.369.759-.563 1.136l-33.158-35.912-7.508 35.912-33.158 15.622 49.842 18.463-7.925 35.129 46.944-14.485v57.725h31.237v-57.725l46.944 14.485z" fill="#f49c0f"/><path d="m360.475 262.834-33.155-15.634-7.511-35.904-33.155 35.904c-.194-.375-.375-.75-.555-1.125-7.553-15.842-3.679-34.766 9.025-46.845l2.749-2.624s-32.003-32.766-41.805-52.148l-.069-.125.001 215.333h15.618v-57.732l46.943 14.492-7.928-35.141z" fill="#dd7e00"/></g></g></svg>