<svg id="Capa_1" enable-background="new 0 0 512 512" height="512" viewBox="0 0 512 512" width="512" xmlns="http://www.w3.org/2000/svg"><g id="XMLID_32_"><path id="XMLID_912_" d="m399.102 282.945c0 1.264-.044 5.468-.044 5.468l-.044.087c-1.155-.055-2.364-.087-3.605-.087-34.855 0-34.855 21.784-69.71 21.784s-34.855-21.784-69.71-21.784-34.855 21.784-69.699 21.784c-34.855 0-34.855-21.784-69.71-21.784-1.231 0-2.418.022-3.562.087l-.076-.087c-.033-1.253-.055-4.204-.055-5.468 0-79.034 64.068-143.101 143.112-143.101 79.035-.001 143.103 64.067 143.103 143.101z" fill="#ffe470"/><path id="XMLID_1114_" d="m256.152 139.845v148.571c34.687.07 34.748 21.781 69.547 21.781 34.855 0 34.855-21.784 69.71-21.784 1.242 0 2.451.033 3.605.087l.044-.087s.044-4.204.044-5.468c0-78.983-63.986-143.018-142.95-143.1z" fill="#ffd400"/><path id="XMLID_936_" d="m447.996 318.221c-20.303 0-31.198-6.809-39.952-12.28-7.171-4.482-12.353-7.72-24.052-7.72-11.698 0-16.879 3.238-24.051 7.72-8.753 5.471-19.648 12.28-39.95 12.28s-31.196-6.809-39.95-12.28c-7.17-4.482-12.352-7.72-24.05-7.72-11.697 0-16.877 3.238-24.048 7.72-8.753 5.471-19.647 12.28-39.948 12.28-20.302 0-31.196-6.809-39.95-12.28-7.17-4.481-12.352-7.72-24.049-7.72s-16.879 3.238-24.049 7.72c-8.754 5.471-19.648 12.28-39.95 12.28-20.301 0-31.195-6.809-39.949-12.28-7.17-4.481-12.351-7.72-24.048-7.72v-30c20.301 0 31.195 6.809 39.949 12.28 7.17 4.481 12.351 7.72 24.048 7.72 11.698 0 16.879-3.238 24.049-7.72 8.754-5.471 19.648-12.28 39.95-12.28s31.196 6.809 39.95 12.28c7.17 4.481 12.352 7.72 24.049 7.72s16.877-3.238 24.048-7.72c8.753-5.471 19.647-12.28 39.948-12.28 20.302 0 31.196 6.809 39.95 12.28 7.17 4.481 12.352 7.72 24.049 7.72 11.698 0 16.879-3.238 24.051-7.72 8.753-5.471 19.648-12.28 39.95-12.28 20.303 0 31.197 6.809 39.952 12.28 7.171 4.482 12.353 7.72 24.053 7.72 11.699 0 16.881-3.238 24.052-7.72 8.754-5.471 19.649-12.28 39.952-12.28v30c-11.699 0-16.881 3.238-24.052 7.72-8.755 5.472-19.649 12.28-39.952 12.28z" fill="#2ad8f6"/><path id="XMLID_931_" d="m447.996 389.759c-20.303 0-31.198-6.809-39.952-12.28-7.171-4.482-12.353-7.72-24.052-7.72-11.698 0-16.879 3.238-24.051 7.72-8.753 5.471-19.648 12.28-39.95 12.28s-31.196-6.809-39.95-12.28c-7.17-4.482-12.352-7.72-24.05-7.72-11.697 0-16.877 3.238-24.048 7.72-8.753 5.471-19.647 12.28-39.948 12.28-20.302 0-31.196-6.809-39.95-12.28-7.17-4.481-12.352-7.72-24.049-7.72s-16.879 3.238-24.049 7.72c-8.754 5.471-19.648 12.28-39.95 12.28-20.301 0-31.195-6.809-39.949-12.28-7.17-4.481-12.351-7.72-24.048-7.72v-30c20.301 0 31.195 6.809 39.949 12.28 7.17 4.481 12.351 7.72 24.048 7.72 11.698 0 16.879-3.238 24.049-7.72 8.754-5.471 19.648-12.28 39.95-12.28s31.196 6.809 39.95 12.28c7.17 4.481 12.352 7.72 24.049 7.72s16.877-3.238 24.048-7.72c8.753-5.471 19.647-12.28 39.948-12.28 20.302 0 31.196 6.809 39.95 12.28 7.17 4.481 12.352 7.72 24.049 7.72 11.698 0 16.879-3.238 24.051-7.72 8.753-5.471 19.648-12.28 39.95-12.28 20.303 0 31.197 6.809 39.952 12.28 7.171 4.482 12.353 7.72 24.053 7.72 11.699 0 16.881-3.238 24.052-7.72 8.754-5.471 19.649-12.28 39.952-12.28v30c-11.699 0-16.881 3.238-24.052 7.72-8.755 5.471-19.649 12.28-39.952 12.28z" fill="#a8ebfa"/><path id="XMLID_930_" d="m319.991 461.297c-20.302 0-31.196-6.809-39.95-12.28-7.171-4.482-12.352-7.72-24.05-7.72-11.697 0-16.877 3.238-24.048 7.72-8.753 5.471-19.647 12.28-39.948 12.28-20.302 0-31.196-6.809-39.95-12.28-7.17-4.481-12.352-7.72-24.049-7.72v-30c20.302 0 31.196 6.809 39.95 12.28 7.17 4.481 12.352 7.72 24.049 7.72s16.877-3.238 24.048-7.72c8.753-5.471 19.647-12.28 39.948-12.28 20.302 0 31.196 6.809 39.95 12.28 7.17 4.481 12.352 7.72 24.049 7.72 11.698 0 16.879-3.238 24.051-7.72 8.753-5.471 19.648-12.28 39.95-12.28v30c-11.698 0-16.879 3.238-24.051 7.72-8.752 5.471-19.647 12.28-39.949 12.28z" fill="#2ad8f6"/><g fill="#ffe470"><path id="XMLID_929_" d="m241.152 50.703h30v53.789h-30z"/><path id="XMLID_928_" d="m154.097 70.502h30v53.789h-30z" transform="matrix(.901 -.434 .434 .901 -25.513 83.013)"/><path id="XMLID_927_" d="m84.253 126.111h30v53.789h-30z" transform="matrix(.624 -.782 .782 .624 -82.255 135.208)"/><path id="XMLID_926_" d="m45.455 206.518h30v53.788h-30z" transform="matrix(.223 -.975 .975 .223 -180.558 240.414)"/></g><path id="XMLID_925_" d="m424.712 218.716h53.789v30h-53.789z" fill="#ffd400" transform="matrix(.975 -.223 .223 .975 -40.685 106.353)"/><path id="XMLID_920_" d="m386.039 138.25h53.789v30h-53.789z" fill="#ffd400" transform="matrix(.782 -.624 .624 .782 -5.46 290.897)"/><path id="XMLID_913_" d="m316.282 82.532h53.789v30h-53.789z" fill="#ffd400" transform="matrix(.434 -.901 .901 .434 106.405 364.406)"/><path id="XMLID_1117_" d="m256.152 50.703h15v53.789h-15z" fill="#ffd400"/><path id="XMLID_1113_" d="m472.048 280.501c-7.171 4.482-12.353 7.72-24.052 7.72-11.7 0-16.881-3.238-24.053-7.72-8.754-5.471-19.649-12.28-39.952-12.28-20.302 0-31.197 6.809-39.95 12.28-7.171 4.482-12.353 7.72-24.051 7.72s-16.879-3.238-24.049-7.72c-8.73-5.456-19.594-12.24-39.789-12.277v30c11.581.031 16.752 3.257 23.889 7.717 8.754 5.471 19.648 12.28 39.95 12.28s31.197-6.809 39.95-12.28c7.171-4.482 12.353-7.72 24.051-7.72 11.699 0 16.881 3.238 24.052 7.72 8.754 5.471 19.649 12.28 39.952 12.28s31.197-6.809 39.952-12.28c7.171-4.482 12.353-7.72 24.052-7.72v-30c-20.303 0-31.197 6.809-39.952 12.28z" fill="#00c0f1"/><path id="XMLID_1112_" d="m472.048 352.039c-7.171 4.482-12.353 7.72-24.052 7.72-11.7 0-16.881-3.238-24.053-7.72-8.754-5.471-19.649-12.28-39.952-12.28-20.302 0-31.197 6.809-39.95 12.28-7.171 4.482-12.353 7.72-24.051 7.72s-16.879-3.238-24.049-7.72c-8.73-5.456-19.594-12.24-39.789-12.277v30c11.581.031 16.752 3.257 23.889 7.717 8.754 5.471 19.648 12.28 39.95 12.28s31.197-6.809 39.95-12.28c7.171-4.482 12.353-7.72 24.051-7.72 11.699 0 16.881 3.238 24.052 7.72 8.754 5.471 19.649 12.28 39.952 12.28s31.197-6.809 39.952-12.28c7.171-4.482 12.353-7.72 24.052-7.72v-30c-20.303 0-31.197 6.808-39.952 12.28z" fill="#2ad8f6"/><path id="XMLID_1128_" d="m344.042 423.577c-7.171 4.482-12.353 7.72-24.051 7.72s-16.879-3.238-24.049-7.72c-8.73-5.456-19.594-12.24-39.789-12.277v30c11.581.031 16.752 3.257 23.889 7.717 8.754 5.471 19.648 12.28 39.95 12.28s31.197-6.809 39.95-12.28c7.171-4.482 12.353-7.72 24.051-7.72v-30c-20.304 0-31.198 6.809-39.951 12.28z" fill="#00c0f1"/></g></svg>